<?xml version="1.0" encoding="utf-8"?>
<!-- Generator: Adobe Illustrator 16.0.0, SVG Export Plug-In . SVG Version: 6.00 Build 0)  -->
<!DOCTYPE svg PUBLIC "-//W3C//DTD SVG 1.1 Tiny//EN" "http://www.w3.org/Graphics/SVG/1.1/DTD/svg11-tiny.dtd">
<svg version="1.1" baseProfile="tiny" id="Calque_1"
	 xmlns="http://www.w3.org/2000/svg" xmlns:xlink="http://www.w3.org/1999/xlink" x="0px" y="0px" width="568px" height="115px"
	 viewBox="0 0 568 115" overflow="scroll" xml:space="preserve">
<g>
	<g>
		<path fill="#1FB6EA" d="M160.752,25.795c7.838,0,14.579,2.839,20.221,8.514c5.64,5.675,8.462,12.593,8.462,20.752
			c0,8.086-2.785,14.93-8.35,20.528c-5.565,5.6-12.319,8.4-20.258,8.4c-8.317,0-15.227-2.875-20.73-8.626
			c-5.501-5.749-8.253-12.58-8.253-20.488c0-5.299,1.281-10.171,3.845-14.614c2.563-4.446,6.087-7.968,10.572-10.566
			C150.744,27.097,155.575,25.795,160.752,25.795z M160.638,36.117c-5.128,0-9.438,1.782-12.933,5.348
			c-3.494,3.566-5.24,8.097-5.24,13.596c0,6.129,2.198,10.974,6.598,14.54c3.419,2.787,7.341,4.18,11.765,4.18
			c5,0,9.262-1.806,12.781-5.422c3.52-3.617,5.28-8.073,5.28-13.373c0-5.273-1.773-9.736-5.317-13.39
			C170.027,37.943,165.716,36.117,160.638,36.117z"/>
		<path fill="#1FB6EA" d="M198.249,41.616h10.282v4.2c2.331-1.966,4.443-3.333,6.338-4.104c1.891-0.768,3.829-1.152,5.811-1.152
			c4.062,0,7.509,1.419,10.344,4.257c2.381,2.409,3.572,5.975,3.572,10.695v27.083h-10.171V64.65c0-4.891-0.22-8.139-0.658-9.745
			c-0.437-1.604-1.2-2.826-2.291-3.667c-1.091-0.84-2.436-1.262-4.039-1.262c-2.078,0-3.864,0.698-5.354,2.089
			c-1.49,1.391-2.523,3.318-3.101,5.775c-0.301,1.279-0.45,4.051-0.45,8.314v16.44h-10.282V41.616z"/>
		<path fill="#1FB6EA" d="M243.408,25.795h10.282v56.8h-10.282V25.795z"/>
		<path fill="#1FB6EA" d="M267.043,24.742c1.802,0,3.349,0.651,4.637,1.957c1.291,1.306,1.936,2.888,1.936,4.747
			c0,1.834-0.639,3.396-1.916,4.689c-1.276,1.295-2.804,1.94-4.581,1.94c-1.828,0-3.386-0.658-4.677-1.977
			c-1.29-1.319-1.933-2.918-1.933-4.803c0-1.806,0.636-3.351,1.913-4.632C263.699,25.383,265.239,24.742,267.043,24.742z
			 M261.902,41.616h10.282v40.979h-10.282V41.616z"/>
		<path fill="#1FB6EA" d="M281.526,41.616h10.282v4.2c2.33-1.966,4.443-3.333,6.338-4.104c1.891-0.768,3.828-1.152,5.811-1.152
			c4.062,0,7.509,1.419,10.344,4.257c2.381,2.409,3.572,5.975,3.572,10.695v27.083h-10.171V64.65c0-4.891-0.22-8.139-0.658-9.745
			c-0.437-1.604-1.2-2.826-2.291-3.667c-1.091-0.84-2.436-1.262-4.04-1.262c-2.077,0-3.863,0.698-5.354,2.089
			c-1.49,1.391-2.523,3.318-3.101,5.775c-0.301,1.279-0.45,4.051-0.45,8.314v16.44h-10.282V41.616z"/>
		<path fill="#1FB6EA" d="M368.871,65.081H335.84c0.477,2.914,1.752,5.231,3.823,6.949c2.071,1.72,4.713,2.581,7.928,2.581
			c3.843,0,7.145-1.343,9.907-4.031l8.663,4.068c-2.161,3.063-4.746,5.33-7.759,6.798c-3.015,1.47-6.592,2.205-10.734,2.205
			c-6.43,0-11.665-2.027-15.707-6.085c-4.045-4.053-6.065-9.133-6.065-15.235c0-6.252,2.017-11.444,6.046-15.573
			c4.03-4.132,9.084-6.197,15.16-6.197c6.453,0,11.702,2.065,15.744,6.197c4.042,4.129,6.065,9.584,6.065,16.365L368.871,65.081z
			 M358.589,56.983c-0.678-2.285-2.017-4.143-4.018-5.576c-1.999-1.431-4.318-2.146-6.961-2.146c-2.868,0-5.383,0.803-7.546,2.412
			c-1.358,1.003-2.616,2.774-3.772,5.311H358.589z"/>
		<path fill="#FFFFFF" d="M407.404,34.722l-7.813,6.895c-2.74-3.818-5.534-5.725-8.375-5.725c-1.385,0-2.516,0.371-3.397,1.11
			c-0.88,0.742-1.321,1.576-1.321,2.504c0,0.931,0.316,1.808,0.944,2.638c0.855,1.106,3.434,3.478,7.734,7.118
			c4.024,3.366,6.465,5.488,7.32,6.366c2.138,2.16,3.654,4.224,4.547,6.197c0.894,1.971,1.339,4.124,1.339,6.458
			c0,4.547-1.571,8.301-4.714,11.264c-3.142,2.962-7.239,4.443-12.29,4.443c-3.947,0-7.387-0.968-10.313-2.901
			c-2.93-1.933-5.436-4.97-7.522-9.113l8.865-5.35c2.666,4.898,5.734,7.345,9.203,7.345c1.811,0,3.333-0.527,4.564-1.582
			c1.233-1.054,1.85-2.271,1.85-3.654c0-1.255-0.465-2.51-1.396-3.766c-0.933-1.255-2.982-3.177-6.15-5.762
			c-6.037-4.922-9.937-8.72-11.696-11.395c-1.762-2.673-2.642-5.341-2.642-8.003c0-3.842,1.463-7.138,4.393-9.888
			s6.544-4.125,10.843-4.125c2.765,0,5.399,0.641,7.899,1.922C401.777,28.997,404.487,31.333,407.404,34.722z"/>
		<path fill="#FFFFFF" d="M417.347,25.795h10.208v19.964c2.008-1.733,4.028-3.033,6.063-3.899s4.093-1.299,6.178-1.299
			c4.068,0,7.495,1.406,10.282,4.217c2.385,2.438,3.579,6.015,3.579,10.735v27.083h-10.134V64.628c0-4.744-0.224-7.959-0.676-9.642
			c-0.452-1.681-1.225-2.938-2.317-3.766c-1.093-0.829-2.442-1.244-4.048-1.244c-2.085,0-3.876,0.691-5.368,2.072
			c-1.494,1.382-2.529,3.265-3.106,5.65c-0.303,1.231-0.452,4.044-0.452,8.437v16.46h-10.208V25.795z"/>
		<path fill="#FFFFFF" d="M482.848,40.561c3.866,0,7.5,0.968,10.903,2.901s6.059,4.558,7.968,7.871
			c1.906,3.315,2.861,6.892,2.861,10.734c0,3.869-0.961,7.483-2.881,10.849c-1.921,3.364-4.538,5.995-7.854,7.891
			c-3.313,1.896-6.968,2.844-10.961,2.844c-5.877,0-10.891-2.091-15.047-6.271c-4.156-4.182-6.234-9.26-6.234-15.237
			c0-6.403,2.349-11.737,7.044-16.008C472.765,42.419,477.5,40.561,482.848,40.561z M483.017,50.24
			c-3.195,0-5.854,1.112-7.979,3.333c-2.127,2.223-3.188,5.067-3.188,8.532c0,3.565,1.049,6.454,3.15,8.663
			c2.098,2.209,4.76,3.315,7.979,3.315c3.22,0,5.898-1.117,8.036-3.353c2.138-2.234,3.208-5.108,3.208-8.626
			c0-3.516-1.051-6.37-3.151-8.569C488.972,51.339,486.286,50.24,483.017,50.24z"/>
		<path fill="#FFFFFF" d="M523.186,41.616v4.518c1.858-1.856,3.869-3.25,6.028-4.18c2.159-0.928,4.47-1.393,6.93-1.393
			c5.35,0,9.894,2.021,13.635,6.065c3.742,4.042,5.611,9.227,5.611,15.556c0,6.1-1.934,11.204-5.8,15.31
			c-3.866,4.105-8.45,6.159-13.747,6.159c-2.361,0-4.558-0.421-6.592-1.262c-2.034-0.843-4.056-2.216-6.065-4.125v19.324h-10.206
			V41.616H523.186z M533.997,50.054c-3.239,0-5.927,1.104-8.062,3.313c-2.133,2.209-3.202,5.097-3.202,8.663
			c0,3.64,1.069,6.585,3.202,8.832c2.135,2.247,4.822,3.371,8.062,3.371c3.138,0,5.782-1.141,7.928-3.428
			c2.146-2.284,3.222-5.196,3.222-8.738c0-3.515-1.056-6.396-3.164-8.644C539.871,51.177,537.21,50.054,533.997,50.054z"/>
	</g>
	<circle fill="#1FB6EA" cx="59.422" cy="57.501" r="46.812"/>
	<g>
		<path fill="#FFFFFF" d="M48.979,50.942c1.396,0,2.525-1.13,2.525-2.523v-9.855c0-4.404,3.586-7.987,7.992-7.987
			c4.401,0,7.987,3.583,7.987,7.987v9.855c0,1.393,1.132,2.523,2.525,2.523c1.396,0,2.528-1.13,2.528-2.523v-9.855
			c0-7.191-5.853-13.041-13.041-13.041c-7.191,0-13.041,5.85-13.041,13.041v9.855C46.454,49.812,47.586,50.942,48.979,50.942z"/>
		<path fill="#FFFFFF" d="M88.473,45.266H75.063v3.153c0,2.785-2.267,5.049-5.054,5.049c-2.784,0-5.051-2.264-5.051-5.049v-3.153
			H54.033v3.153c0,2.785-2.265,5.049-5.052,5.049c-2.786,0-5.051-2.264-5.051-5.049v-3.153h-13.56c-0.697,0-1.128,0.551-0.963,1.227
			l8.839,35.998c0.533,2.023,2.662,3.66,4.755,3.66h32.841c2.096,0,4.224-1.637,4.759-3.66l8.837-35.998
			C89.604,45.814,89.173,45.266,88.473,45.266z"/>
	</g>
</g>
</svg>
